<svg version="1.1" viewBox="0.0 0.0 960.0 540.0" fill="none" stroke="none" stroke-linecap="square" stroke-miterlimit="10" xmlns:xlink="http://www.w3.org/1999/xlink" xmlns="http://www.w3.org/2000/svg"><clipPath id="g3b12c969812_0_38.0"><path d="m0 0l960.0 0l0 540.0l-960.0 0l0 -540.0z" clip-rule="nonzero"/></clipPath><g clip-path="url(#g3b12c969812_0_38.0)"><path fill="#000000" fill-opacity="0.0" d="m0 0l960.0 0l0 540.0l-960.0 0z" fill-rule="evenodd"/><path fill="#ffffff" d="m883.4304 119.367455l53.1969 0l0 354.77164l-53.1969 0z" fill-rule="evenodd"/><path fill="#ffffff" d="m15.745407 114.64829l65.85827 0l0 65.85827l-65.85827 0z" fill-rule="evenodd"/><path fill="#ffffff" d="m15.745407 200.24934l65.85827 0l0 65.85826l-65.85827 0z" fill-rule="evenodd"/><path fill="#ffffff" d="m15.745407 285.8504l65.85827 0l0 65.858246l-65.85827 0z" fill-rule="evenodd"/><path fill="#ffffff" d="m15.745407 371.45145l65.85827 0l0 65.85828l-65.85827 0z" fill-rule="evenodd"/><path fill="#ffffff" d="m15.745407 457.0525l65.85827 0l0 65.85828l-65.85827 0z" fill-rule="evenodd"/><path fill="#ffffff" d="m92.238846 114.64829l10.48819 0l0 65.85827l-10.48819 0z" fill-rule="evenodd"/><path fill="#ffffff" d="m92.238846 200.24934l10.48819 0l0 65.85826l-10.48819 0z" fill-rule="evenodd"/><path fill="#ffffff" d="m92.238846 285.8504l10.48819 0l0 65.858246l-10.48819 0z" fill-rule="evenodd"/><path fill="#ffffff" d="m92.238846 371.45145l10.48819 0l0 65.85828l-10.48819 0z" fill-rule="evenodd"/><path fill="#ffffff" d="m92.238846 457.0525l10.48819 0l0 65.85828l-10.48819 0z" fill-rule="evenodd"/><path fill="#ffffff" d="m15.745407 13.834645l86.99213 0l0 86.99213l-86.99213 0z" fill-rule="evenodd"/><path fill="#ffffff" d="m860.07874 474.14435l99.90552 0l0 65.85828l-99.90552 0z" fill-rule="evenodd"/><path fill="#ffffff" d="m119.49074 13.834645l322.07874 0l0 15.590552l-322.07874 0z" fill-rule="evenodd"/><path fill="#ffffff" d="m501.85037 13.834645l40.314972 0l0 15.590552l-40.314972 0z" fill-rule="evenodd"/><path fill="#ffffff" d="m542.2023 13.834645l40.31494 0l0 15.590552l-40.31494 0z" fill-rule="evenodd"/><path fill="#ffffff" d="m581.8508 13.834645l40.315002 0l0 15.590552l-40.315002 0z" fill-rule="evenodd"/><path fill="#ffffff" d="m622.20276 13.834645l40.315002 0l0 15.590552l-40.315002 0z" fill-rule="evenodd"/><path fill="#ffffff" d="m662.5547 13.834645l40.31494 0l0 15.590552l-40.31494 0z" fill-rule="evenodd"/><path fill="#ffffff" d="m702.9066 13.834645l40.31494 0l0 15.590552l-40.31494 0z" fill-rule="evenodd"/><path fill="#ffffff" d="m743.25854 13.834645l40.31494 0l0 15.590552l-40.31494 0z" fill-rule="evenodd"/><path fill="#ffffff" d="m783.6105 13.834645l40.31494 0l0 15.590552l-40.31494 0z" fill-rule="evenodd"/><path fill="#ffffff" d="m471.70996 16.255905c5.223114 -12.236219 25.5932 0 0 15.732285c-25.59317 -15.732285 -5.2230835 -27.968504 0 -15.732285z" fill-rule="evenodd"/><path fill="#ffffff" d="m860.2703 54.254593l0 0c0 -24.022211 19.473877 -43.496063 43.496094 -43.496063l0 0c11.535889 0 22.599243 4.5826073 30.756348 12.739701c8.1571045 8.157095 12.739685 19.220488 12.739685 30.756361l0 0c0 24.02221 -19.473816 43.496063 -43.496033 43.496063l0 0c-24.022217 0 -43.496094 -19.473854 -43.496094 -43.496063z" fill-rule="evenodd"/></g></svg>